<svg xmlns="http://www.w3.org/2000/svg" width="25.515" height="23.474" viewBox="0 0 25.515 23.474"><defs><style>.a{fill:#707070;}</style></defs><g transform="translate(-0.001 1.332)"><path class="a" d="M22.007-1.332H3.508A3.512,3.512,0,0,0,0,2.176V13.5A3.512,3.512,0,0,0,3.5,17v5.137L10.879,17H22.007A3.512,3.512,0,0,0,25.515,13.5V2.176a3.512,3.512,0,0,0-3.508-3.508ZM24.02,13.5a2.015,2.015,0,0,1-2.013,2.013H10.41L4.991,19.28V15.51H3.508A2.015,2.015,0,0,1,1.5,13.5V2.176A2.015,2.015,0,0,1,3.508.163h18.5A2.015,2.015,0,0,1,24.02,2.176Zm0,0"/><path class="a" d="M171.293,131.172H183.15v1.495H171.293Zm0,0" transform="translate(-164.463 -127.222)"/><path class="a" d="M171.293,211.172H183.15v1.495H171.293Zm0,0" transform="translate(-164.463 -204.032)"/><path class="a" d="M171.293,291.172H183.15v1.495H171.293Zm0,0" transform="translate(-164.463 -280.843)"/></g></svg>