<svg xmlns="http://www.w3.org/2000/svg" width="28.753" height="24.82" viewBox="0 0 28.753 24.82"><defs><style>.a{fill:#707070;stroke:#707070;stroke-width:0.5px;}</style></defs><g transform="translate(0.25 -20.976)"><path class="a" d="M28.253,35.352a14.08,14.08,0,0,0-4.073-9.914.7.7,0,0,0-.064-.075.691.691,0,0,0-.075-.064,14.1,14.1,0,0,0-19.827,0,.712.712,0,0,0-.075.064.694.694,0,0,0-.064.075,14.113,14.113,0,0,0,.063,19.9h0a.695.695,0,0,0,.982,0c.012-.012.022-.024.033-.036L7.3,43.166a.695.695,0,0,0-.982-.983L4.642,43.854a12.63,12.63,0,0,1-3.234-7.807H3.771a.695.695,0,1,0,0-1.389H1.409a12.686,12.686,0,0,1,3.238-7.8l1.666,1.666a.695.695,0,0,0,.982-.983L5.629,25.873a12.686,12.686,0,0,1,7.8-3.238V25a.695.695,0,0,0,1.389,0V22.635a12.686,12.686,0,0,1,7.8,3.238l-1.666,1.666a.695.695,0,0,0,.982.983l1.666-1.666a12.686,12.686,0,0,1,3.238,7.8H24.482a.695.695,0,1,0,0,1.389h2.363a12.63,12.63,0,0,1-3.234,7.807L21.94,42.183a.695.695,0,0,0-.982.983l2.175,2.175a.694.694,0,0,0,.983,0A14.034,14.034,0,0,0,28.253,35.352Z" transform="translate(0 0)"/><path class="a" d="M130.372,87.228a.7.7,0,0,0-.9.387l-2.008,5.011a2.642,2.642,0,0,0-.281-.017,2.576,2.576,0,0,0-2.305,1.413,2.762,2.762,0,0,0,.318,2.913,1.131,1.131,0,0,0,.247.247,2.965,2.965,0,0,0,1.74.6,2.576,2.576,0,0,0,2.305-1.413,2.761,2.761,0,0,0-.317-2.912,1.131,1.131,0,0,0-.247-.248c-.051-.037-.1-.07-.154-.1l1.992-4.973A.7.7,0,0,0,130.372,87.228Zm-2.125,8.509a1.193,1.193,0,0,1-1.067.655,1.547,1.547,0,0,1-.888-.308,1.372,1.372,0,0,1-.179-1.43A1.193,1.193,0,0,1,127.181,94a1.352,1.352,0,0,1,.433.074l.014.006.046.016a1.845,1.845,0,0,1,.4.212A1.372,1.372,0,0,1,128.248,95.737Z" transform="translate(-113.054 -59.842)"/></g></svg>