<svg xmlns="http://www.w3.org/2000/svg" width="24" height="24" viewBox="0 0 24 24">
  <g id="physics" transform="translate(-1 -1)">
    <path id="Path_310" data-name="Path 310" d="M21.2,12.225l1.773-2.786a1.536,1.536,0,1,0-.655-.413l-1.79,2.813h-5L12.307,6.82l2.062-2.835a1.531,1.531,0,0,0,.566.111,1.55,1.55,0,1,0-1.194-.564l-2.1,2.887H7.913a1.546,1.546,0,1,0-2.63,1.438L3.632,10.426a1.916,1.916,0,0,0-.7-.136,1.936,1.936,0,1,0,.7,3.735l2.318,3.606L3.889,20.466a1.531,1.531,0,0,0-.566-.111,1.55,1.55,0,1,0,1.194.564l2.1-2.887h5.011l2.783,4.329a1.155,1.155,0,1,0,2,1.09h2.433a1.935,1.935,0,1,0,3.245-1.769l2.6-4.037Zm2.25-5.031a.774.774,0,1,1,0,1.548.754.754,0,0,1-.417-.122.774.774,0,0,1,.417-1.426ZM14.935,1.774a.774.774,0,1,1,0,1.548.749.749,0,0,1-.458-.153.761.761,0,0,1-.316-.621A.775.775,0,0,1,14.935,1.774ZM7.913,7.194h3.715l3.235,5.032-3.235,5.032h-5l-2.347-3.65a1.921,1.921,0,0,0,0-2.764l1.652-2.57a1.519,1.519,0,0,0,.483.082A1.546,1.546,0,0,0,7.913,7.194ZM6.419,6.032a.774.774,0,0,1,0,1.548.779.779,0,0,1-.774-.774A.775.775,0,0,1,6.419,6.032ZM1.774,12.226a1.163,1.163,0,0,1,1.161-1.161,1.161,1.161,0,0,1,0,2.323A1.163,1.163,0,0,1,1.774,12.226ZM3.323,22.677a.774.774,0,1,1,0-1.548.749.749,0,0,1,.458.153A.761.761,0,0,1,4.1,21.9.775.775,0,0,1,3.323,22.677Zm12,.774a.387.387,0,0,1-.387-.387.392.392,0,0,1,.186-.33.354.354,0,0,1,.2-.057.387.387,0,1,1,0,.774Zm3.523-.774H16.413a1.16,1.16,0,0,0-1.09-.774,1.182,1.182,0,0,0-.266.033L12.3,17.645l3.235-5.032h5l3.235,5.032-2.327,3.62a1.916,1.916,0,0,0-.7-.136A1.939,1.939,0,0,0,18.846,22.677Zm1.9,1.548a1.161,1.161,0,1,1,0-2.323A1.166,1.166,0,0,1,21.9,23.065,1.163,1.163,0,0,1,20.742,24.226Z" fill="#fff"/>
    <path id="Path_311" data-name="Path 311" d="M15,25h3.1v.774H15Z" transform="translate(-8.581 -14.71)" fill="#fff"/>
    <path id="Path_312" data-name="Path 312" d="M25,25h1.548v.774H25Z" transform="translate(-14.71 -14.71)" fill="#fff"/>
    <path id="Path_313" data-name="Path 313" d="M15,29h5.419v.774H15Z" transform="translate(-8.581 -17.161)" fill="#fff"/>
    <path id="Path_314" data-name="Path 314" d="M27,33h.774v.774H27Z" transform="translate(-15.935 -19.613)" fill="#fff"/>
    <path id="Path_315" data-name="Path 315" d="M23,33h.774v.774H23Z" transform="translate(-13.484 -19.613)" fill="#fff"/>
    <path id="Path_316" data-name="Path 316" d="M15,33h2.323v.774H15Z" transform="translate(-8.581 -19.613)" fill="#fff"/>
    <path id="Path_317" data-name="Path 317" d="M38,39h3.1v.774H38Z" transform="translate(-22.677 -23.29)" fill="#fff"/>
    <path id="Path_318" data-name="Path 318" d="M48,39h1.548v.774H48Z" transform="translate(-28.806 -23.29)" fill="#fff"/>
    <path id="Path_319" data-name="Path 319" d="M38,43h5.419v.774H38Z" transform="translate(-22.677 -25.742)" fill="#fff"/>
    <path id="Path_320" data-name="Path 320" d="M50,47h.774v.774H50Z" transform="translate(-30.032 -28.194)" fill="#fff"/>
    <path id="Path_321" data-name="Path 321" d="M46,47h.774v.774H46Z" transform="translate(-27.581 -28.194)" fill="#fff"/>
    <path id="Path_322" data-name="Path 322" d="M38,47h2.323v.774H38Z" transform="translate(-22.677 -28.194)" fill="#fff"/>
  </g>
</svg>
